<?xml version="1.0" encoding="utf-8"?>
<!-- Generator: Adobe Illustrator 18.0.0, SVG Export Plug-In . SVG Version: 6.00 Build 0)  -->
<!DOCTYPE svg PUBLIC "-//W3C//DTD SVG 1.1//EN" "http://www.w3.org/Graphics/SVG/1.1/DTD/svg11.dtd">
<svg version="1.1" id="图层_1" xmlns="http://www.w3.org/2000/svg" xmlns:xlink="http://www.w3.org/1999/xlink" x="0px" y="0px"
	 viewBox="0 0 1024 1024" style="enable-background:new 0 0 1024 1024;" xml:space="preserve">
<style type="text/css">
	.st0{fill:#040000;}
	.st1{fill:none;stroke:#040000;stroke-width:45;stroke-linecap:round;stroke-linejoin:round;stroke-miterlimit:10;}
	.st2{fill:none;stroke:#000000;stroke-width:50;stroke-linecap:round;stroke-miterlimit:10;}
	.st3{fill:#231815;}
	.st4{fill:none;}
	.st5{fill-rule:evenodd;clip-rule:evenodd;}
</style>
<g>
	<g>
		<path class="st5" d="M466,771.8H313.2c-11.5,0-21-9.4-21-21V247.2c0-11.5,9.4-21,21-21h398.7c11.5,0,21,9.4,21,21v178.4
			c0,11.5,9.4,21,21,21c11.5,0,21-9.4,21-21V247.2c0-34.6-28.3-62.9-62.9-62.9H313.2c-34.6,0-62.9,28.3-62.9,62.9v503.6
			c0,34.6,28.3,62.9,62.9,62.9H466c11.5,0,21-9.4,21-21C487,781.2,477.5,771.8,466,771.8L466,771.8z"/>
	</g>
	<g>
		<path class="st5" d="M664.3,299.7H349.5c-11.5,0-21,9.4-21,21c0,11.5,9.4,21,21,21h314.7c11.5,0,21-9.4,21-21
			C685.3,309.1,675.8,299.7,664.3,299.7L664.3,299.7z M664.3,404.6H349.5c-11.5,0-21,9.4-21,21c0,11.5,9.4,21,21,21h314.7
			c11.5,0,21-9.4,21-21C685.3,414,675.8,404.6,664.3,404.6L664.3,404.6z M541.9,509.5H349.5c-11.5,0-21,9.4-21,21
			c0,11.5,9.4,21,21,21h192.3c11.5,0,21-9.4,21-21C562.9,518.9,553.4,509.5,541.9,509.5L541.9,509.5z M797.5,833H593.3
			c-10.5,0-19.2,8.7-19.2,19.2c0,10.5,8.7,19.2,19.2,19.2h204.2c10.5,0,18.9-8.4,19.2-19.6C816.8,841.4,808,833,797.5,833L797.5,833
			z M792.3,682.3h-40.2c-5.2-12.2,1.4-35.3,18.2-62.6l0.3-0.7v-0.4c0.4-0.3,0.7-1,0.7-1c7.3-14,14.7-31.5,14.7-54.2
			c0-50.7-39.9-90.9-90.9-91.3h-0.7c-51.1,0.3-90.6,40.6-90.6,91.3c0,22.7,7.3,39.9,14.7,53.9c0.4,1,0.7,1.7,1,2.1l0.3,0.4
			c16.8,27.3,23.4,50,18.2,62.6h-40.2c-22.7,0-40.9,18.9-40.9,42.3v67.5c0,9.4,7.7,17.1,17.1,17.1h242.3c9.4,0,16.8-7.7,16.8-16.8
			v-67.8C833.2,701.1,815,682.3,792.3,682.3L792.3,682.3z M795.4,770.4H594.7v-45.8c0-2.1,1.4-3.5,3.1-3.5h57l2.4-2.1
			c29.4-24.1,27.6-66.4-4.9-119.3c-6.6-12.9-10.5-23.1-10.5-36.4c0-29.7,23.1-52.5,53.2-52.8c30.4,0.3,53.2,23.1,53.2,52.8
			c0,13.6-3.8,23.8-10.5,36.4c-32.5,52.8-33.9,95.1-4.9,119.3l2.4,2.1h56.7c1.7,0,3.1,1.4,3.1,3.5v45.8H795.4L795.4,770.4z
			 M484.9,614.4H349.5c-11.5,0-21,9.4-21,21c0,11.5,9.4,21,21,21h135.3c11.5,0,21-9.4,21-21C505.9,623.8,496.4,614.4,484.9,614.4
			L484.9,614.4z"/>
	</g>
</g>
</svg>
