<?xml version="1.0" encoding="utf-8"?>
<!-- Generator: Adobe Illustrator 18.0.0, SVG Export Plug-In . SVG Version: 6.00 Build 0)  -->
<!DOCTYPE svg PUBLIC "-//W3C//DTD SVG 1.1//EN" "http://www.w3.org/Graphics/SVG/1.1/DTD/svg11.dtd">
<svg version="1.1" id="图层_1" xmlns="http://www.w3.org/2000/svg" xmlns:xlink="http://www.w3.org/1999/xlink" x="0px" y="0px"
	 viewBox="0 0 1024 1024" style="enable-background:new 0 0 1024 1024;" xml:space="preserve">
<style type="text/css">
	.st0{fill:#040000;}
	.st1{fill:none;stroke:#040000;stroke-width:45;stroke-linecap:round;stroke-linejoin:round;stroke-miterlimit:10;}
	.st2{fill:none;stroke:#000000;stroke-width:50;stroke-linecap:round;stroke-miterlimit:10;}
	.st3{fill:#231815;}
	.st4{fill:none;}
	.st5{fill-rule:evenodd;clip-rule:evenodd;}
</style>
<g>
	<path d="M573.6,863.6h-258c-58.9,0-106.8-47.9-106.8-106.8v-458c0-58.9,47.9-106.8,106.8-106.8h357.6
		c58.9,0,106.8,47.9,106.8,106.8v246c0,12.4-10.1,22.5-22.5,22.5S735,557.3,735,544.9v-246c0-34.1-27.7-61.8-61.8-61.8H315.6
		c-34.1,0-61.8,27.7-61.8,61.8v458c0,34.1,27.7,61.8,61.8,61.8h258c12.4,0,22.5,10.1,22.5,22.5S586,863.6,573.6,863.6z"/>
</g>
<g>
	<path d="M628.1,369.9H342c-12.4,0-22.5-10.1-22.5-22.5s10.1-22.5,22.5-22.5h286c12.4,0,22.5,10.1,22.5,22.5
		S640.5,369.9,628.1,369.9z"/>
</g>
<g>
	<path d="M634.9,504.4H342c-12.4,0-22.5-10.1-22.5-22.5s10.1-22.5,22.5-22.5h292.9c12.4,0,22.5,10.1,22.5,22.5
		S647.3,504.4,634.9,504.4z"/>
</g>
<g>
	<path d="M471.4,627.3H335.2c-12.4,0-22.5-10.1-22.5-22.5s10.1-22.5,22.5-22.5h136.2c12.4,0,22.5,10.1,22.5,22.5
		S483.9,627.3,471.4,627.3z"/>
</g>
<g>
	<path d="M663.8,802.3c-5.6,0-11.2-2.1-15.5-6.2L535.9,688.9c-9-8.6-9.3-22.8-0.7-31.8c8.6-9,22.8-9.3,31.8-0.7l96.8,92.4
		l185.4-177.5c9-8.6,23.2-8.3,31.8,0.7c8.6,9,8.3,23.2-0.7,31.8L679.4,796.1C675,800.3,669.4,802.3,663.8,802.3z"/>
</g>
</svg>
