<?xml version="1.0" encoding="utf-8"?>
<!-- Generator: Adobe Illustrator 18.0.0, SVG Export Plug-In . SVG Version: 6.00 Build 0)  -->
<!DOCTYPE svg PUBLIC "-//W3C//DTD SVG 1.1//EN" "http://www.w3.org/Graphics/SVG/1.1/DTD/svg11.dtd">
<svg version="1.1" id="图层_1" xmlns="http://www.w3.org/2000/svg" xmlns:xlink="http://www.w3.org/1999/xlink" x="0px" y="0px"
	 viewBox="0 0 1024 1024" style="enable-background:new 0 0 1024 1024;" xml:space="preserve">
<style type="text/css">
	.st0{fill:#040000;}
	.st1{fill:none;stroke:#040000;stroke-width:45;stroke-linecap:round;stroke-linejoin:round;stroke-miterlimit:10;}
	.st2{fill:none;stroke:#000000;stroke-width:50;stroke-linecap:round;stroke-miterlimit:10;}
	.st3{fill:#231815;}
	.st4{fill:none;}
	.st5{fill-rule:evenodd;clip-rule:evenodd;}
</style>
<g>
	<path d="M670.6,416.2c-81.8,0-148.3-66.5-148.3-148.3s66.5-148.3,148.3-148.3s148.3,66.5,148.3,148.3S752.3,416.2,670.6,416.2z
		 M670.6,159.5c-59.7,0-108.3,48.6-108.3,108.3c0,59.7,48.6,108.3,108.3,108.3s108.3-48.6,108.3-108.3
		C778.9,208.1,730.3,159.5,670.6,159.5z"/>
</g>
<g>
	<path d="M257.4,672.8c-81.8,0-148.3-66.5-148.3-148.3s66.5-148.3,148.3-148.3s148.3,66.5,148.3,148.3S339.2,672.8,257.4,672.8z
		 M257.4,416.2c-59.7,0-108.3,48.6-108.3,108.3c0,59.7,48.6,108.3,108.3,108.3s108.3-48.6,108.3-108.3
		C365.7,464.8,317.1,416.2,257.4,416.2z"/>
</g>
<g>
	<path d="M670.6,904.5c-81.8,0-148.3-66.5-148.3-148.3s66.5-148.3,148.3-148.3s148.3,66.5,148.3,148.3S752.3,904.5,670.6,904.5z
		 M670.6,647.8c-59.7,0-108.3,48.6-108.3,108.3c0,59.7,48.6,108.3,108.3,108.3s108.3-48.6,108.3-108.3
		C778.9,696.4,730.3,647.8,670.6,647.8z"/>
</g>
<g>
	<rect x="455" y="291" transform="matrix(0.3993 0.9168 -0.9168 0.3993 660.7184 -189.4957)" width="40" height="236.9"/>
</g>
<g>
	<rect x="342.3" y="641.7" transform="matrix(0.7849 0.6196 -0.6196 0.7849 507.7267 -139.1683)" width="224" height="40"/>
</g>
</svg>
