<?xml version="1.0" encoding="utf-8"?>
<!-- Generator: Adobe Illustrator 18.0.0, SVG Export Plug-In . SVG Version: 6.00 Build 0)  -->
<!DOCTYPE svg PUBLIC "-//W3C//DTD SVG 1.1//EN" "http://www.w3.org/Graphics/SVG/1.1/DTD/svg11.dtd">
<svg version="1.1" id="图层_1" xmlns="http://www.w3.org/2000/svg" xmlns:xlink="http://www.w3.org/1999/xlink" x="0px" y="0px"
	 viewBox="0 0 1024 1024" style="enable-background:new 0 0 1024 1024;" xml:space="preserve">
<style type="text/css">
	.st0{fill:#040000;}
	.st1{fill:none;stroke:#040000;stroke-width:45;stroke-linecap:round;stroke-linejoin:round;stroke-miterlimit:10;}
	.st2{fill:none;stroke:#000000;stroke-width:50;stroke-linecap:round;stroke-miterlimit:10;}
	.st3{fill:#231815;}
	.st4{fill:none;}
	.st5{fill-rule:evenodd;clip-rule:evenodd;}
</style>
<g>
	<path d="M291.9,450.9h307.2c14.1,0,25.6-11.5,25.6-25.6c0-14.1-11.5-25.6-25.6-25.6H291.9c-14.1,0-25.6,11.5-25.6,25.6
		C266.3,439.5,277.8,450.9,291.9,450.9L291.9,450.9z M291.9,604.5h307.2c14.1,0,25.6-11.5,25.6-25.6c0-14.1-11.5-25.6-25.6-25.6
		H291.9c-14.1,0-25.6,11.5-25.6,25.6C266.3,593.1,277.8,604.5,291.9,604.5L291.9,604.5z M291.9,758.1h307.2
		c14.1,0,25.6-11.5,25.6-25.6c0-14.1-11.5-25.6-25.6-25.6H291.9c-14.1,0-25.6,11.5-25.6,25.6C266.3,746.7,277.8,758.1,291.9,758.1
		L291.9,758.1z M701.5,246.1c-14.1,0-25.6,11.5-25.6,25.6s11.5,25.6,25.6,25.6c14.1,0,25.6,11.5,25.6,25.6v512
		c0,14.1-11.5,25.6-25.6,25.6h-512c-14.1,0-25.6-11.5-25.6-25.6v-512c0-14.1,11.5-25.6,25.6-25.6c14.1,0,25.6-11.5,25.6-25.6
		s-11.5-25.6-25.6-25.6c-42.3,0-76.8,34.5-76.8,76.8v512c0,42.3,34.5,76.8,76.8,76.8h512c42.3,0,76.8-34.5,76.8-76.8v-512
		C778.3,280.6,743.9,246.1,701.5,246.1L701.5,246.1z M291.9,297.3h307.2c14.1,0,25.6-11.5,25.6-25.6s-11.5-25.6-25.6-25.6h-28.2
		c-11.8-58.4-63.5-102.4-125.4-102.4c-61.9,0-113.6,44-125.4,102.4h-28.2c-14.1,0-25.6,11.5-25.6,25.6S277.8,297.3,291.9,297.3
		L291.9,297.3z M445.5,194.9c33.3,0,61,21.5,71.6,51.2H373.9C384.6,216.4,412.2,194.9,445.5,194.9L445.5,194.9z M445.5,194.9"/>
</g>
<g>
	<rect x="112.9" y="143.7" class="st4" width="665.9" height="768"/>
</g>
</svg>
