<?xml version="1.0" encoding="utf-8"?>
<!-- Generator: Adobe Illustrator 18.0.0, SVG Export Plug-In . SVG Version: 6.00 Build 0)  -->
<!DOCTYPE svg PUBLIC "-//W3C//DTD SVG 1.1//EN" "http://www.w3.org/Graphics/SVG/1.1/DTD/svg11.dtd">
<svg version="1.1" id="图层_1" xmlns="http://www.w3.org/2000/svg" xmlns:xlink="http://www.w3.org/1999/xlink" x="0px" y="0px"
	 viewBox="0 0 1024 1024" style="enable-background:new 0 0 1024 1024;" xml:space="preserve">
<style type="text/css">
	.st0{fill:#040000;}
	.st1{fill:none;stroke:#040000;stroke-width:45;stroke-linecap:round;stroke-linejoin:round;stroke-miterlimit:10;}
	.st2{fill:none;stroke:#000000;stroke-width:50;stroke-linecap:round;stroke-miterlimit:10;}
	.st3{fill:#231815;}
	.st4{fill:none;}
	.st5{fill-rule:evenodd;clip-rule:evenodd;}
</style>
<g>
	<path d="M498.7,576.6c-60.2,0-116.8-23.5-159.4-66c-42.6-42.6-66-99.2-66-159.4c0-60.2,23.5-116.8,66-159.4
		c42.6-42.6,99.2-66,159.4-66c60.2,0,116.8,23.5,159.4,66c42.6,42.6,66,99.2,66,159.4s-23.5,116.8-66,159.4
		C615.5,553.1,558.9,576.6,498.7,576.6z M498.7,165.6c-102.3,0-185.5,83.2-185.5,185.5s83.2,185.5,185.5,185.5
		s185.5-83.2,185.5-185.5S600.9,165.6,498.7,165.6z"/>
</g>
<g>
	<path d="M92.7,923.5l2.1-22c6.7-68.4,31-134.5,70.2-191c38.5-55.3,90.5-100.6,150.6-130.8c9.9-5,21.9-1,26.9,8.9
		c5,9.9,1,21.9-8.9,26.9c-105.8,53.3-177.9,152.4-196.2,267.9l719.6-2.8c-29.1-174.8-179.9-303.9-359.6-303.9c-11,0-20-9-20-20
		s9-20,20-20c100.6,0,197,37.2,271.5,104.6c74,67,120.4,158.3,130.8,257.1l2.3,22L92.7,923.5z"/>
</g>
<g>
	<path d="M502.8,851.6c-10,0-19.5-3.7-26.9-10.5l-36.2-33.5c-9.7-9-14.3-22.1-12.2-35.1l16.1-104.1c3-19.4,19.5-33.5,39.1-33.5h35.4
		c19.5,0,36.3,14.5,39.2,33.8L572.8,774c1.8,12.2-2.1,24.2-10.5,33.1l-30.8,32.3C524,847.2,513.6,851.6,502.8,851.6z M467.1,778.4
		l35.7,33.1l30.4-31.9l-15.4-104.8h-34.7L467.1,778.4z"/>
</g>
</svg>
