<?xml version="1.0" encoding="utf-8"?>
<!-- Generator: Adobe Illustrator 18.0.0, SVG Export Plug-In . SVG Version: 6.00 Build 0)  -->
<!DOCTYPE svg PUBLIC "-//W3C//DTD SVG 1.1//EN" "http://www.w3.org/Graphics/SVG/1.1/DTD/svg11.dtd">
<svg version="1.1" id="图层_1" xmlns="http://www.w3.org/2000/svg" xmlns:xlink="http://www.w3.org/1999/xlink" x="0px" y="0px"
	 viewBox="0 0 1024 1024" style="enable-background:new 0 0 1024 1024;" xml:space="preserve">
<style type="text/css">
	.st0{fill:#040000;}
	.st1{fill:none;stroke:#040000;stroke-width:45;stroke-linecap:round;stroke-linejoin:round;stroke-miterlimit:10;}
	.st2{fill:none;stroke:#000000;stroke-width:50;stroke-linecap:round;stroke-miterlimit:10;}
	.st3{fill:#231815;}
	.st4{fill:none;}
	.st5{fill-rule:evenodd;clip-rule:evenodd;}
</style>
<g>
	<path class="st0" d="M512,767.5c-86.1,0-167.1-33.5-227.9-94.4s-94.4-141.8-94.4-227.9s33.5-167.1,94.4-227.9
		s141.8-94.4,227.9-94.4s167.1,33.5,227.9,94.4s94.4,141.8,94.4,227.9s-33.5,167.1-94.4,227.9S598.1,767.5,512,767.5z M512,162.8
		c-155.7,0-282.4,126.7-282.4,282.4S356.3,727.5,512,727.5s282.4-126.7,282.4-282.4S667.7,162.8,512,162.8z"/>
</g>
<g>
	<path class="st0" d="M511.4,658.7c-89.3,0-161.9-72.6-161.9-161.9s72.6-161.9,161.9-161.9c89.3,0,161.9,72.6,161.9,161.9
		S600.6,658.7,511.4,658.7z M511.4,374.9c-67.2,0-121.9,54.7-121.9,121.9c0,67.2,54.7,121.9,121.9,121.9
		c67.2,0,121.9-54.7,121.9-121.9C633.3,429.6,578.6,374.9,511.4,374.9z"/>
</g>
<g>
	<circle class="st0" cx="506.9" cy="266.2" r="34.8"/>
</g>
<g>
	
		<rect x="546.4" y="790.6" transform="matrix(0.3941 0.9191 -0.9191 0.3941 1122.5085 -81.4921)" class="st0" width="153.3" height="40"/>
</g>
<g>
	
		<rect x="375.9" y="733" transform="matrix(0.9418 0.3362 -0.3362 0.9418 295.9293 -85.8526)" class="st0" width="40" height="157.4"/>
</g>
<g>
	<path class="st0" d="M752.9,911.5H274.4c-11,0-20-9-20-20s9-20,20-20h478.5c11,0,20,9,20,20S763.9,911.5,752.9,911.5z"/>
</g>
</svg>
