<?xml version="1.0" encoding="utf-8"?>
<!-- Generator: Adobe Illustrator 18.0.0, SVG Export Plug-In . SVG Version: 6.00 Build 0)  -->
<!DOCTYPE svg PUBLIC "-//W3C//DTD SVG 1.1//EN" "http://www.w3.org/Graphics/SVG/1.1/DTD/svg11.dtd">
<svg version="1.1" id="图层_1" xmlns="http://www.w3.org/2000/svg" xmlns:xlink="http://www.w3.org/1999/xlink" x="0px" y="0px"
	 viewBox="0 0 1024 1024" style="enable-background:new 0 0 1024 1024;" xml:space="preserve">
<style type="text/css">
	.st0{fill:#040000;}
	.st1{fill:none;stroke:#040000;stroke-width:45;stroke-linecap:round;stroke-linejoin:round;stroke-miterlimit:10;}
	.st2{fill:none;stroke:#000000;stroke-width:50;stroke-linecap:round;stroke-miterlimit:10;}
	.st3{fill:#231815;}
	.st4{fill:none;}
	.st5{fill-rule:evenodd;clip-rule:evenodd;}
</style>
<g>
	<path class="st0" d="M518.5,506.2c-7.8,0-15.5-1.9-22.3-5.6L210.4,346.8c-15.7-8.4-25.2-24.7-24.8-42.5s10.6-33.6,26.7-41.3
		l287-137.8c6.3-3,13.4-4.6,20.4-4.6c7.3,0,14.6,1.7,21.2,5l275.9,138.9c15.6,7.9,25.6,23.6,25.9,41.2c0.3,17.5-9,33.6-24.3,42.1
		L541.2,500.4C534.3,504.2,526.4,506.2,518.5,506.2z M519.7,160.5c-1.1,0-2.1,0.2-3.1,0.7L229.6,299c-3.4,1.6-4,4.6-4,6.2
		s0.4,4.6,3.7,6.4l285.8,153.8c2.1,1.1,4.7,1.1,6.8,0L799,312.6c3.2-1.8,3.7-4.7,3.7-6.3c0-1.6-0.6-4.5-3.9-6.2L522.9,161.2
		C521.9,160.7,520.8,160.5,519.7,160.5z"/>
</g>
<g>
	<path class="st0" d="M466.8,944.8c-8,0-16-2-23.1-5.8L165.1,790c-16-8.6-26-25.1-26-43.3V411.9c0-27.1,22-49.1,49.1-49.1
		c8,0,16,2,23.1,5.8L490,517.5c16,8.6,26,25.1,26,43.3v334.8C515.9,922.7,493.9,944.8,466.8,944.8z M188.3,402.8
		c-4.4,0-9.1,3.5-9.1,9.1v334.8c0,3.4,1.8,6.4,4.8,8l278.6,148.9c1.4,0.7,2.8,1.1,4.3,1.1c4.4,0,9.1-3.5,9.1-9.1V560.8
		c0-3.4-1.8-6.4-4.8-8L192.5,403.9C191.1,403.2,189.7,402.8,188.3,402.8z"/>
</g>
<g>
	<path class="st0" d="M582.5,939.5C582.5,939.5,582.5,939.5,582.5,939.5c-30,0-54.5-24.4-54.5-54.5V563.4
		c0-19.5,10.5-37.7,27.5-47.3l248-140.9c8.2-4.7,17.5-7.2,26.8-7.2c30,0,54.5,24.4,54.5,54.5v321.6c0,19.5-10.5,37.7-27.5,47.3
		l-248,140.9C601.1,937,591.8,939.5,582.5,939.5z M830.4,408c-2.4,0-4.8,0.6-7.1,1.9l-248,140.9c-4.5,2.6-7.3,7.4-7.3,12.5V885
		c0,8.9,7.5,14.5,14.5,14.5c0,0,0,0,0,0c2.4,0,4.8-0.7,7.1-1.9l248-140.9c4.5-2.6,7.3-7.4,7.3-12.5V422.5
		C844.8,413.6,837.3,408,830.4,408z"/>
</g>
</svg>
