<?xml version="1.0" encoding="utf-8"?>
<!-- Generator: Adobe Illustrator 18.0.0, SVG Export Plug-In . SVG Version: 6.00 Build 0)  -->
<!DOCTYPE svg PUBLIC "-//W3C//DTD SVG 1.1//EN" "http://www.w3.org/Graphics/SVG/1.1/DTD/svg11.dtd">
<svg version="1.1" id="图层_1" xmlns="http://www.w3.org/2000/svg" xmlns:xlink="http://www.w3.org/1999/xlink" x="0px" y="0px"
	 viewBox="0 0 1024 1024" style="enable-background:new 0 0 1024 1024;" xml:space="preserve">
<style type="text/css">
	.st0{fill:#040000;}
	.st1{fill:none;stroke:#040000;stroke-width:45;stroke-linecap:round;stroke-linejoin:round;stroke-miterlimit:10;}
	.st2{fill:none;stroke:#000000;stroke-width:50;stroke-linecap:round;stroke-miterlimit:10;}
	.st3{fill:#231815;}
	.st4{fill:none;}
	.st5{fill-rule:evenodd;clip-rule:evenodd;}
</style>
<g>
	<path class="st0" d="M475.2,830.2H242c-39,0-70.8-31.7-70.8-70.8V208.2c0-11,9-20,20-20H723c50.9,0,92.3,41.4,92.3,92.3v242.7
		c0,5.7-2.4,11.1-6.6,14.9l-320,287C484.9,828.4,480.1,830.2,475.2,830.2z M211.2,228.2v531.2c0,17,13.8,30.8,30.8,30.8h225.6
		l307.7-275.9V280.5c0-28.8-23.4-52.3-52.3-52.3H211.2z"/>
</g>
<g>
	<path class="st0" d="M542.2,933.2c-5.6,0-11-2.4-14.9-6.6c-4.9-5.4-6.4-13.1-4-20l33-94c1.1-3,2.9-5.8,5.2-8l249-233
		c8-7.4,20.4-7.2,28,0.7l68,70c3.7,3.8,5.8,9,5.6,14.4c-0.1,5.4-2.4,10.4-6.3,14.1l-248,233c-2.6,2.4-5.7,4.1-9.1,4.9l-102,24
		C545.3,933,543.7,933.2,542.2,933.2z M592.5,830.5l-19.3,54.9l61.2-14.4l229.3-215.4l-40.2-41.3L592.5,830.5z"/>
</g>
<g>
	<path class="st0" d="M836.5,728.5c-5.2,0-10.3-2-14.2-6l-68.6-69.6c-7.8-7.9-7.7-20.5,0.2-28.3c7.9-7.7,20.5-7.7,28.3,0.2
		l68.6,69.6c7.8,7.9,7.7,20.5-0.2,28.3C846.7,726.6,841.6,728.5,836.5,728.5z"/>
</g>
<g>
	<path class="st0" d="M488.2,595.2c-10.6,0-19.5-8.4-20-19.1c-0.8-16.9-1.6-58,7-75.7c2.2-4.5,5.8-8.5,13.6-17.2
		c13.6-15.2,38.9-43.4,52.1-73.1c8.7-19.5,7.4-42.1-3.2-57.4c-11.3-16.4-32.9-24.2-62.4-22.5c-28.4,1.6-48.2,13.7-60.4,36.9
		c-9.8,18.7-10.8,37.7-10.8,37.9c-0.4,11-9.6,19.6-20.7,19.3c-11-0.4-19.7-9.7-19.3-20.7c0.1-2.7,1.3-27.4,14.5-53.5
		c13-25.5,39.9-56.7,94.3-59.8c43.5-2.5,78.1,11.6,97.6,39.7c18.4,26.6,21.1,64.4,6.9,96.4c-15.8,35.5-43.8,66.8-58.9,83.6
		c-2.8,3.2-6.3,7-7.7,8.8c-2.5,7.2-3.8,32.5-2.7,55.6c0.5,11-8,20.4-19.1,20.9C488.8,595.2,488.5,595.2,488.2,595.2z"/>
</g>
<g>
	<path class="st1" d="M487.2,638.9"/>
</g>
<g>
	<circle cx="492.9" cy="640.2" r="17.5"/>
</g>
</svg>
