<?xml version="1.0" encoding="utf-8"?>
<!-- Generator: Adobe Illustrator 18.0.0, SVG Export Plug-In . SVG Version: 6.00 Build 0)  -->
<!DOCTYPE svg PUBLIC "-//W3C//DTD SVG 1.1//EN" "http://www.w3.org/Graphics/SVG/1.1/DTD/svg11.dtd">
<svg version="1.1" id="图层_1" xmlns="http://www.w3.org/2000/svg" xmlns:xlink="http://www.w3.org/1999/xlink" x="0px" y="0px"
	 viewBox="0 0 1024 1024" style="enable-background:new 0 0 1024 1024;" xml:space="preserve">
<style type="text/css">
	.st0{fill:#040000;}
	.st1{fill:none;stroke:#040000;stroke-width:45;stroke-linecap:round;stroke-linejoin:round;stroke-miterlimit:10;}
	.st2{fill:none;stroke:#000000;stroke-width:50;stroke-linecap:round;stroke-miterlimit:10;}
	.st3{fill:#231815;}
	.st4{fill:none;}
	.st5{fill-rule:evenodd;clip-rule:evenodd;}
</style>
<g>
	<path class="st0" d="M801.9,886.6H222.1c-45.1,0-81.9-36.7-81.9-81.9V428.9c0-45.1,36.7-81.9,81.9-81.9h579.8
		c45.1,0,81.9,36.7,81.9,81.9v375.8C883.8,849.9,847.1,886.6,801.9,886.6z M222.1,387.1c-23.1,0-41.9,18.8-41.9,41.9v375.8
		c0,23.1,18.8,41.9,41.9,41.9h579.8c23.1,0,41.9-18.8,41.9-41.9V428.9c0-23.1-18.8-41.9-41.9-41.9H222.1z"/>
</g>
<g>
	<path class="st0" d="M860.4,614.2h-692c-11,0-20-9-20-20s9-20,20-20h692c11,0,20,9,20,20S871.4,614.2,860.4,614.2z"/>
</g>
<g>
	<path class="st0" d="M320.9,708.9c-11,0-20-9-20-20V538.5c0-11,9-20,20-20s20,9,20,20v150.4C340.9,699.9,331.9,708.9,320.9,708.9z"
		/>
</g>
<g>
	<path class="st0" d="M693.2,708.9c-11,0-20-9-20-20V538.5c0-11,9-20,20-20s20,9,20,20v150.4C713.2,699.9,704.2,708.9,693.2,708.9z"
		/>
</g>
<g>
	<path class="st0" d="M701.3,367.1h-40v-67.8c0-26.4-21.5-47.8-47.8-47.8h-203c-26.4,0-47.8,21.5-47.8,47.8v67.8h-40v-67.8
		c0-48.4,39.4-87.8,87.8-87.8h203c48.4,0,87.8,39.4,87.8,87.8V367.1z"/>
</g>
</svg>
