<?xml version="1.0" encoding="utf-8"?>
<!-- Generator: Adobe Illustrator 18.0.0, SVG Export Plug-In . SVG Version: 6.00 Build 0)  -->
<!DOCTYPE svg PUBLIC "-//W3C//DTD SVG 1.1//EN" "http://www.w3.org/Graphics/SVG/1.1/DTD/svg11.dtd">
<svg version="1.1" id="图层_1" xmlns="http://www.w3.org/2000/svg" xmlns:xlink="http://www.w3.org/1999/xlink" x="0px" y="0px"
	 viewBox="0 0 1024 1024" style="enable-background:new 0 0 1024 1024;" xml:space="preserve">
<style type="text/css">
	.st0{fill:#040000;}
	.st1{fill:none;stroke:#040000;stroke-width:45;stroke-linecap:round;stroke-linejoin:round;stroke-miterlimit:10;}
	.st2{fill:none;stroke:#000000;stroke-width:50;stroke-linecap:round;stroke-miterlimit:10;}
	.st3{fill:#231815;}
	.st4{fill:none;}
	.st5{fill-rule:evenodd;clip-rule:evenodd;}
</style>
<g>
	<path class="st0" d="M71.3,392.2c-8.4,0-16.2-5.3-19-13.7c-3.5-10.5,2.2-21.8,12.6-25.3c3.6-1.2,3.6-1.2,44.3-1.3
		c22.7-0.1,55.8-0.1,98.6-0.1c72,0,172.1,0,297.6,0c213.7,0.1,429.7,0.4,431.9,0.4c11,0,20,9,20,20c0,11-9,20-20,20c0,0,0,0,0,0
		c-289.8-0.3-840.7-0.8-864.3-0.1C72.4,392.2,71.8,392.2,71.3,392.2z"/>
</g>
<g>
	<path class="st0" d="M829.1,412.5L494.7,206.9c-2.3-0.9-4.4-2.2-6.2-3.8l-53-32.6c-21.5-13.2-49.9-8.5-65.9,11.1L202.7,384.5
		c-7,8.5-19.6,9.8-28.2,2.7c-8.5-7-9.8-19.6-2.7-28.2l166.8-202.8c13.9-17,33.5-28.3,55.2-31.9c21.7-3.6,43.9,0.7,62.6,12.2
		l50.2,30.9l171.2-26.3c38.6-5.9,75.4,16.7,87.5,53.8l0.2,0.6L829.1,412.5z M559.3,199.7L761.4,324L727.2,207
		c-6.1-18.2-24.3-29.3-43.3-26.4L559.3,199.7z"/>
</g>
<g>
	<path class="st0" d="M555.3,517.2h-294c-11,0-20-9-20-20s9-20,20-20h294c11,0,20,9,20,20S566.3,517.2,555.3,517.2z"/>
</g>
<g>
	<path class="st0" d="M255.3,669.2c-6.5,0-12.8-3.1-16.7-8.9c-6.1-9.2-3.6-21.6,5.5-27.7c6.4-4.3,7-4.6,90.3-4.1
		c38.2,0.2,76.6,0.7,77,0.8c11,0.1,19.9,9.2,19.7,20.3c-0.1,11-9.1,19.7-20,19.7c-0.1,0-0.2,0-0.3,0c-65.7-0.9-139.9-1.3-151.6-0.4
		C258,669.1,256.6,669.2,255.3,669.2z"/>
</g>
<g>
	<path class="st0" d="M459.3,942.2h-191c-60.7,0-110-49.3-110-110v-450c0-11,9-20,20-20s20,9,20,20v450c0,38.6,31.4,70,70,70h191
		c11,0,20,9,20,20S470.3,942.2,459.3,942.2z"/>
</g>
<g>
	<path class="st0" d="M722.3,942.2h-55c-11,0-20-9-20-20s9-20,20-20h55c38.6,0,70-31.4,70-70v-450c0-11,9-20,20-20s20,9,20,20v450
		C832.3,892.9,782.9,942.2,722.3,942.2z"/>
</g>
</svg>
